<svg width="722" height="145" viewBox="0 0 722 145" fill="none" xmlns="http://www.w3.org/2000/svg">
<path d="M184.258 52.3081L184.258 80.8562" stroke="white" stroke-width="7" stroke-linecap="round"/>
<path d="M198.792 66.3226L170.243 66.3226" stroke="white" stroke-width="7" stroke-linecap="round"/>
<path d="M178.851 99.5423V113.038L200.133 99.5423C200.133 99.5423 229.719 100.84 235.948 99.5423C242.176 98.2447 241.961 98.1932 245.291 96.6875C249.931 94.589 252.191 93.1369 255.931 89.6802C260.618 85.3486 262.24 82.5853 263.977 76.4442C265.604 70.6902 266.277 66.5082 265.274 60.613C264.361 55.2415 263.272 51.9714 260.343 47.3771C257.297 42.5996 254.543 40.4598 249.703 37.515C244.827 34.5491 240.456 33.3625 236.904 32.5839C233.352 31.8054 181.624 31.8054 178.851 32.5839C176.078 33.3625 171.325 34.8196 167.172 37.515C162.543 40.5197 160.148 42.8092 157.051 47.3771C153.914 52.0039 152.563 55.1065 151.601 60.613C150.833 65.0059 150.767 67.6513 151.601 72.0323C152.593 77.2488 154.079 80.0893 157.051 84.4896C160.18 89.1219 162.498 91.5449 167.172 94.6112C171.312 97.3269 178.851 99.5423 178.851 99.5423Z" stroke="white" stroke-width="3.11434"/>
<path d="M235.125 55.4224C235.125 58.8624 232.337 61.6511 228.897 61.6511C225.457 61.6511 222.668 58.8624 222.668 55.4224C222.668 51.9824 225.457 49.1937 228.897 49.1937C232.337 49.1937 235.125 51.9824 235.125 55.4224Z" fill="white"/>
<path d="M235.125 55.4224C235.125 58.8624 232.337 61.6511 228.897 61.6511C225.457 61.6511 222.668 58.8624 222.668 55.4224C222.668 51.9824 225.457 49.1937 228.897 49.1937C232.337 49.1937 235.125 51.9824 235.125 55.4224Z" fill="white"/>
<path d="M235.726 78.78C235.726 82.22 232.937 85.0086 229.497 85.0086C226.057 85.0086 223.269 82.22 223.269 78.78C223.269 75.3399 226.057 72.5513 229.497 72.5513C232.937 72.5513 235.726 75.3399 235.726 78.78Z" fill="white"/>
<path d="M235.726 78.78C235.726 82.22 232.937 85.0086 229.497 85.0086C226.057 85.0086 223.269 82.22 223.269 78.78C223.269 75.3399 226.057 72.5513 229.497 72.5513C232.937 72.5513 235.726 75.3399 235.726 78.78Z" fill="white"/>
<path d="M223.706 66.8417C223.706 70.2817 220.917 73.0704 217.477 73.0704C214.037 73.0704 211.249 70.2817 211.249 66.8417C211.249 63.4017 214.037 60.613 217.477 60.613C220.917 60.613 223.706 63.4017 223.706 66.8417Z" fill="white"/>
<path d="M223.706 66.8417C223.706 70.2817 220.917 73.0704 217.477 73.0704C214.037 73.0704 211.249 70.2817 211.249 66.8417C211.249 63.4017 214.037 60.613 217.477 60.613C220.917 60.613 223.706 63.4017 223.706 66.8417Z" fill="white"/>
<path d="M247.064 66.8417C247.064 70.2817 244.275 73.0704 240.835 73.0704C237.395 73.0704 234.606 70.2817 234.606 66.8417C234.606 63.4017 237.395 60.613 240.835 60.613C244.275 60.613 247.064 63.4017 247.064 66.8417Z" fill="white"/>
<path d="M247.064 66.8417C247.064 70.2817 244.275 73.0704 240.835 73.0704C237.395 73.0704 234.606 70.2817 234.606 66.8417C234.606 63.4017 237.395 60.613 240.835 60.613C244.275 60.613 247.064 63.4017 247.064 66.8417Z" fill="white"/>
<path d="M289.117 77.8203C289.789 78.1797 290.469 78.4453 291.156 78.6172C291.859 78.7891 292.602 78.875 293.383 78.875C295.242 78.875 296.703 78.4609 297.766 77.6328C298.844 76.7891 299.383 75.6484 299.383 74.2109C299.383 72.4922 297.984 70.5 295.188 68.2344C295.172 68.2188 295.164 68.2109 295.164 68.2109C295.117 68.1797 295.047 68.125 294.953 68.0469C290.906 64.8125 288.883 61.9531 288.883 59.4688C288.883 58.3281 289.133 57.2031 289.633 56.0938C290.133 54.9844 290.844 53.9688 291.766 53.0469C293.156 51.6875 294.648 50.6562 296.242 49.9531C297.836 49.2344 299.477 48.875 301.164 48.875C302.383 48.875 303.297 49.0781 303.906 49.4844C304.516 49.8906 304.82 50.5 304.82 51.3125C304.82 51.5938 304.719 51.9688 304.516 52.4375C304.312 52.8906 304.016 53.4297 303.625 54.0547C303.016 53.8047 302.391 53.6172 301.75 53.4922C301.125 53.3516 300.484 53.2812 299.828 53.2812C297.828 53.2812 296.258 53.7344 295.117 54.6406C293.992 55.5312 293.43 56.7578 293.43 58.3203C293.43 59.2578 293.656 60.1094 294.109 60.875C294.578 61.6406 295.445 62.5547 296.711 63.6172C296.898 63.7734 297.172 64 297.531 64.2969C301.781 67.8594 303.906 70.875 303.906 73.3438C303.906 74.2812 303.734 75.2031 303.391 76.1094C303.062 77.0156 302.562 77.9062 301.891 78.7812C300.75 80.2344 299.328 81.3594 297.625 82.1562C295.938 82.9375 294.109 83.3281 292.141 83.3281C290.812 83.3281 289.805 83.1016 289.117 82.6484C288.445 82.1797 288.109 81.5 288.109 80.6094C288.109 80.2031 288.188 79.7734 288.344 79.3203C288.516 78.8516 288.773 78.3516 289.117 77.8203ZM324.18 81.8047C323.43 82.2266 322.719 82.5391 322.047 82.7422C321.375 82.9453 320.742 83.0469 320.148 83.0469C319.352 83.0469 318.789 82.8281 318.461 82.3906C318.148 81.9375 317.992 81.1016 317.992 79.8828C317.992 79.0859 318.07 76.6641 318.227 72.6172C318.398 68.5547 318.484 64.8984 318.484 61.6484C318.484 60.8203 318.461 59.0703 318.414 56.3984C318.398 55.1016 318.391 54.0781 318.391 53.3281H316.609C314.312 53.3281 312.453 53.4297 311.031 53.6328C309.625 53.8359 308.539 54.1562 307.773 54.5938C307.414 53.9062 307.148 53.3203 306.977 52.8359C306.805 52.3359 306.719 51.8984 306.719 51.5234C306.719 50.8203 306.961 50.3281 307.445 50.0469C307.93 49.75 308.773 49.6016 309.977 49.6016C310.602 49.6016 312.391 49.6719 315.344 49.8125C318.297 49.9531 320.945 50.0234 323.289 50.0234C326.117 50.0234 328.367 49.9141 330.039 49.6953C331.727 49.4766 333.008 49.125 333.883 48.6406C334.195 49.1406 334.422 49.6016 334.562 50.0234C334.719 50.4297 334.797 50.8125 334.797 51.1719C334.797 52.0156 334.484 52.6406 333.859 53.0469C333.234 53.4375 332.266 53.6328 330.953 53.6328C330.469 53.6328 329.297 53.5938 327.438 53.5156C325.578 53.4375 324.094 53.3828 322.984 53.3516C322.875 56.0859 322.789 58.6641 322.727 61.0859C322.68 63.4922 322.656 65.7109 322.656 67.7422C322.656 71.6328 322.773 74.6875 323.008 76.9062C323.258 79.125 323.648 80.7578 324.18 81.8047ZM357.391 54.0547C356.562 53.6797 355.555 53.4062 354.367 53.2344C353.195 53.0469 351.703 52.9531 349.891 52.9531C349.141 52.9531 347.75 52.9766 345.719 53.0234C345.219 53.0391 344.836 53.0469 344.57 53.0469L344.383 63.4062C344.805 63.4375 345.258 63.4531 345.742 63.4531C346.227 63.4531 346.992 63.4531 348.039 63.4531C350.117 63.4531 351.828 63.4062 353.172 63.3125C354.531 63.2188 355.523 63.0781 356.148 62.8906C356.336 63.3281 356.477 63.7188 356.57 64.0625C356.664 64.3906 356.711 64.6875 356.711 64.9531C356.711 65.7031 356.469 66.2422 355.984 66.5703C355.5 66.8984 354.703 67.0625 353.594 67.0625C353.234 67.0625 352.344 67.0469 350.922 67.0156C349.516 66.9844 348.297 66.9688 347.266 66.9688C346.484 66.9688 345.883 66.9766 345.461 66.9922C345.039 66.9922 344.648 67 344.289 67.0156C344.289 68.7812 344.266 70.6641 344.219 72.6641C344.188 74.6484 344.133 76.8281 344.055 79.2031C344.211 79.2031 344.445 79.2109 344.758 79.2266C346.805 79.2734 348.266 79.2969 349.141 79.2969C350.812 79.2969 352.234 79.2031 353.406 79.0156C354.594 78.8125 355.648 78.4922 356.57 78.0547C356.914 78.6484 357.156 79.1719 357.297 79.625C357.453 80.0625 357.531 80.4688 357.531 80.8438C357.531 81.6719 357.258 82.2578 356.711 82.6016C356.164 82.9297 355.125 83.0938 353.594 83.0938C352.844 83.0938 351.719 83.0703 350.219 83.0234C348.719 82.9766 347.602 82.9531 346.867 82.9531C345.211 82.9531 343.555 82.9922 341.898 83.0703C341.555 83.0859 341.344 83.0938 341.266 83.0938C340.719 83.0938 340.328 82.9688 340.094 82.7188C339.875 82.4688 339.766 82.0312 339.766 81.4062C339.766 81.0781 339.805 80.2422 339.883 78.8984C340.133 74.0547 340.258 69.5156 340.258 65.2812C340.258 61.0781 340.18 57.7109 340.023 55.1797C339.883 52.6484 339.656 50.75 339.344 49.4844H342.32C345.977 49.4844 349.734 49.3672 353.594 49.1328C354.422 49.0859 354.922 49.0625 355.094 49.0625C356.359 49.0625 357.227 49.2031 357.695 49.4844C358.164 49.7656 358.398 50.2656 358.398 50.9844C358.398 51.3906 358.312 51.8516 358.141 52.3672C357.984 52.8672 357.734 53.4297 357.391 54.0547ZM375.672 57.0781L374.547 59.7031C372.75 63.9219 371.43 67.0156 370.586 68.9844H380.453C379.656 66.8438 378.859 64.7891 378.062 62.8203C377.266 60.8359 376.469 58.9219 375.672 57.0781ZM381.719 72.1953H369.039C367.789 74.9141 366.914 77.0469 366.414 78.5938C365.93 80.1406 365.688 81.4688 365.688 82.5781L365.664 82.9531C365.305 83 365.039 83.0234 364.867 83.0234C364.711 83.0391 364.562 83.0469 364.422 83.0469C363.406 83.0469 362.633 82.8438 362.102 82.4375C361.57 82.0156 361.305 81.4062 361.305 80.6094C361.305 79.8125 362.82 76.3672 365.852 70.2734C368.883 64.1797 371.531 58.5156 373.797 53.2812C373.547 52.9219 373.273 52.5781 372.977 52.25C372.695 51.9062 372.391 51.5625 372.062 51.2188C372.641 50.5 373.164 49.9766 373.633 49.6484C374.117 49.3203 374.602 49.1562 375.086 49.1562C375.758 49.1562 376.406 49.5938 377.031 50.4688C377.672 51.3281 378.414 52.7969 379.258 54.875C379.992 56.6719 381 59.1797 382.281 62.3984C386.625 73.3203 389.648 79.5938 391.352 81.2188C390.758 81.875 390.211 82.3438 389.711 82.625C389.211 82.9062 388.688 83.0469 388.141 83.0469C386.562 83.0469 384.773 80.3594 382.773 74.9844C382.32 73.7969 381.969 72.8672 381.719 72.1953ZM432.93 50.4453C432.648 51.4609 432.438 52.5078 432.297 53.5859C432.172 54.6484 432.109 55.8125 432.109 57.0781C432.109 62.125 432.43 66.7422 433.07 70.9297C433.711 75.1172 434.656 78.7422 435.906 81.8047C435.156 82.2109 434.453 82.5156 433.797 82.7188C433.141 82.9062 432.5 83 431.875 83C431.219 83 430.703 82.8594 430.328 82.5781C429.953 82.2969 429.68 81.8438 429.508 81.2188C429.414 80.8438 429.242 77.9922 428.992 72.6641C428.742 67.3203 428.391 62.1094 427.938 57.0312C424.672 63.1875 421.234 69.9297 417.625 77.2578C416.969 78.6172 416.516 79.5391 416.266 80.0234C415.969 80.6172 415.672 81.0391 415.375 81.2891C415.094 81.5391 414.766 81.6641 414.391 81.6641C413.641 81.6641 412.867 80.8047 412.07 79.0859C411.883 78.6953 411.734 78.3906 411.625 78.1719C409.094 73.0312 406.953 68.75 405.203 65.3281C403.469 61.8906 402.039 59.1562 400.914 57.125C400.648 61.0781 400.391 65.9297 400.141 71.6797C399.906 77.4141 399.633 80.7266 399.32 81.6172C399.164 82.1016 398.93 82.4531 398.617 82.6719C398.305 82.8906 397.883 83 397.352 83C396.945 83 396.445 82.9062 395.852 82.7188C395.273 82.5156 394.594 82.2109 393.812 81.8047C395.031 78.7578 395.961 75.1328 396.602 70.9297C397.242 66.7266 397.562 62.0625 397.562 56.9375C397.562 55.7031 397.492 54.5625 397.352 53.5156C397.227 52.4531 397.039 51.4297 396.789 50.4453C397.305 49.9922 397.773 49.6641 398.195 49.4609C398.633 49.2578 399.094 49.1562 399.578 49.1562C401.094 49.1562 403.523 52.6172 406.867 59.5391C408.133 62.1484 409.156 64.2266 409.938 65.7734C411.703 69.2734 412.906 71.5859 413.547 72.7109C414.203 73.8359 414.633 74.3984 414.836 74.3984C415.258 74.3984 417.391 70.4922 421.234 62.6797C422.828 59.4609 424.102 56.8906 425.055 54.9688C426.086 52.875 426.992 51.3828 427.773 50.4922C428.57 49.6016 429.359 49.1562 430.141 49.1562C430.594 49.1562 431.031 49.2578 431.453 49.4609C431.891 49.6641 432.383 49.9922 432.93 50.4453ZM447.578 80.2109C447.578 81.0703 447.242 81.7969 446.57 82.3906C445.914 82.9844 445.094 83.2812 444.109 83.2812C443.234 83.2812 442.508 83.0156 441.93 82.4844C441.367 81.9375 441.086 81.2266 441.086 80.3516C441.086 79.4141 441.398 78.6562 442.023 78.0781C442.664 77.4844 443.492 77.1875 444.508 77.1875C445.461 77.1875 446.211 77.4609 446.758 78.0078C447.305 78.5391 447.578 79.2734 447.578 80.2109ZM468.836 81.8047C468.086 82.2266 467.375 82.5391 466.703 82.7422C466.031 82.9453 465.398 83.0469 464.805 83.0469C464.008 83.0469 463.445 82.8281 463.117 82.3906C462.805 81.9375 462.648 81.1016 462.648 79.8828C462.648 79.0859 462.727 76.6641 462.883 72.6172C463.055 68.5547 463.141 64.8984 463.141 61.6484C463.141 60.8203 463.117 59.0703 463.07 56.3984C463.055 55.1016 463.047 54.0781 463.047 53.3281H461.266C458.969 53.3281 457.109 53.4297 455.688 53.6328C454.281 53.8359 453.195 54.1562 452.43 54.5938C452.07 53.9062 451.805 53.3203 451.633 52.8359C451.461 52.3359 451.375 51.8984 451.375 51.5234C451.375 50.8203 451.617 50.3281 452.102 50.0469C452.586 49.75 453.43 49.6016 454.633 49.6016C455.258 49.6016 457.047 49.6719 460 49.8125C462.953 49.9531 465.602 50.0234 467.945 50.0234C470.773 50.0234 473.023 49.9141 474.695 49.6953C476.383 49.4766 477.664 49.125 478.539 48.6406C478.852 49.1406 479.078 49.6016 479.219 50.0234C479.375 50.4297 479.453 50.8125 479.453 51.1719C479.453 52.0156 479.141 52.6406 478.516 53.0469C477.891 53.4375 476.922 53.6328 475.609 53.6328C475.125 53.6328 473.953 53.5938 472.094 53.5156C470.234 53.4375 468.75 53.3828 467.641 53.3516C467.531 56.0859 467.445 58.6641 467.383 61.0859C467.336 63.4922 467.312 65.7109 467.312 67.7422C467.312 71.6328 467.43 74.6875 467.664 76.9062C467.914 79.125 468.305 80.7578 468.836 81.8047ZM483.32 50.3516C484.008 49.9609 484.68 49.6641 485.336 49.4609C486.008 49.2578 486.664 49.1562 487.305 49.1562C488.133 49.1562 488.695 49.3984 488.992 49.8828C489.305 50.3516 489.461 51.3125 489.461 52.7656C489.461 53.4062 489.375 55.3125 489.203 58.4844C489.031 61.6562 488.945 64.5 488.945 67.0156C488.945 71.6875 489.609 74.9922 490.938 76.9297C492.266 78.8672 494.5 79.8359 497.641 79.8359C501.297 79.8359 503.945 78.5859 505.586 76.0859C507.227 73.5859 508.047 69.5391 508.047 63.9453C508.047 60.4453 507.844 57.5859 507.438 55.3672C507.047 53.1484 506.453 51.5469 505.656 50.5625C506.344 50.0938 506.969 49.7422 507.531 49.5078C508.109 49.2734 508.633 49.1562 509.102 49.1562C510.32 49.1562 511.148 49.7969 511.586 51.0781C512.039 52.3438 512.266 55.2578 512.266 59.8203C512.266 68.3984 511.086 74.5312 508.727 78.2188C506.383 81.8906 502.508 83.7266 497.102 83.7266C492.648 83.7266 489.438 82.5781 487.469 80.2812C485.5 77.9844 484.516 74.2031 484.516 68.9375C484.516 67.7656 484.555 66.1016 484.633 63.9453C484.727 61.7891 484.773 60.2188 484.773 59.2344C484.773 57.0938 484.656 55.3125 484.422 53.8906C484.188 52.4531 483.82 51.2734 483.32 50.3516ZM525.039 52.7188C524.992 53.9844 524.953 55.4844 524.922 57.2188C524.906 58.9375 524.883 61.3984 524.852 64.6016C525.289 64.6641 525.711 64.7109 526.117 64.7422C526.523 64.7578 526.914 64.7656 527.289 64.7656C530.055 64.7656 532.188 64.2344 533.688 63.1719C535.188 62.0938 535.938 60.5781 535.938 58.625C535.938 56.6719 535.219 55.1797 533.781 54.1484C532.359 53.1016 530.328 52.5781 527.688 52.5781C527.266 52.5781 526.836 52.5938 526.398 52.625C525.961 52.6406 525.508 52.6719 525.039 52.7188ZM524.898 67.7891V71.0938C524.898 72.2188 524.906 73.3906 524.922 74.6094C524.938 75.8281 524.961 77.3594 524.992 79.2031C525.523 79.2812 526.039 79.3438 526.539 79.3906C527.039 79.4219 527.531 79.4375 528.016 79.4375C530.406 79.4375 532.328 78.8828 533.781 77.7734C535.25 76.6484 535.984 75.1875 535.984 73.3906C535.984 71.5156 535.234 70.1016 533.734 69.1484C532.234 68.1797 530.023 67.6953 527.102 67.6953C526.852 67.6953 526.578 67.7031 526.281 67.7188C526 67.7188 525.539 67.7422 524.898 67.7891ZM533.828 66.0078C535.984 66.5859 537.617 67.4688 538.727 68.6562C539.836 69.8281 540.391 71.2812 540.391 73.0156C540.391 75.8594 539.039 78.2578 536.336 80.2109C533.633 82.1641 530.234 83.1406 526.141 83.1406C523.859 83.1406 522.344 82.8672 521.594 82.3203C520.844 81.7734 520.469 80.7188 520.469 79.1562C520.469 78.7812 520.539 76.9062 520.68 73.5312C520.836 70.1406 520.914 66.9609 520.914 63.9922C520.914 59.7734 520.805 56.5469 520.586 54.3125C520.367 52.0625 520.008 50.3906 519.508 49.2969C521.711 49.2969 523.992 49.25 526.352 49.1562C526.93 49.125 527.273 49.1094 527.383 49.1094C531.352 49.1094 534.492 49.9297 536.805 51.5703C539.133 53.1953 540.297 55.3672 540.297 58.0859C540.297 59.8516 539.75 61.3984 538.656 62.7266C537.578 64.0547 535.969 65.1484 533.828 66.0078ZM566.359 54.0547C565.531 53.6797 564.523 53.4062 563.336 53.2344C562.164 53.0469 560.672 52.9531 558.859 52.9531C558.109 52.9531 556.719 52.9766 554.688 53.0234C554.188 53.0391 553.805 53.0469 553.539 53.0469L553.352 63.4062C553.773 63.4375 554.227 63.4531 554.711 63.4531C555.195 63.4531 555.961 63.4531 557.008 63.4531C559.086 63.4531 560.797 63.4062 562.141 63.3125C563.5 63.2188 564.492 63.0781 565.117 62.8906C565.305 63.3281 565.445 63.7188 565.539 64.0625C565.633 64.3906 565.68 64.6875 565.68 64.9531C565.68 65.7031 565.438 66.2422 564.953 66.5703C564.469 66.8984 563.672 67.0625 562.562 67.0625C562.203 67.0625 561.312 67.0469 559.891 67.0156C558.484 66.9844 557.266 66.9688 556.234 66.9688C555.453 66.9688 554.852 66.9766 554.43 66.9922C554.008 66.9922 553.617 67 553.258 67.0156C553.258 68.7812 553.234 70.6641 553.188 72.6641C553.156 74.6484 553.102 76.8281 553.023 79.2031C553.18 79.2031 553.414 79.2109 553.727 79.2266C555.773 79.2734 557.234 79.2969 558.109 79.2969C559.781 79.2969 561.203 79.2031 562.375 79.0156C563.562 78.8125 564.617 78.4922 565.539 78.0547C565.883 78.6484 566.125 79.1719 566.266 79.625C566.422 80.0625 566.5 80.4688 566.5 80.8438C566.5 81.6719 566.227 82.2578 565.68 82.6016C565.133 82.9297 564.094 83.0938 562.562 83.0938C561.812 83.0938 560.688 83.0703 559.188 83.0234C557.688 82.9766 556.57 82.9531 555.836 82.9531C554.18 82.9531 552.523 82.9922 550.867 83.0703C550.523 83.0859 550.312 83.0938 550.234 83.0938C549.688 83.0938 549.297 82.9688 549.062 82.7188C548.844 82.4688 548.734 82.0312 548.734 81.4062C548.734 81.0781 548.773 80.2422 548.852 78.8984C549.102 74.0547 549.227 69.5156 549.227 65.2812C549.227 61.0781 549.148 57.7109 548.992 55.1797C548.852 52.6484 548.625 50.75 548.312 49.4844H551.289C554.945 49.4844 558.703 49.3672 562.562 49.1328C563.391 49.0859 563.891 49.0625 564.062 49.0625C565.328 49.0625 566.195 49.2031 566.664 49.4844C567.133 49.7656 567.367 50.2656 567.367 50.9844C567.367 51.3906 567.281 51.8516 567.109 52.3672C566.953 52.8672 566.703 53.4297 566.359 54.0547Z" fill="white"/>
</svg>
